<svg width="48" height="48" viewBox="0 0 48 48" fill="none" xmlns="http://www.w3.org/2000/svg">
  <path d="M24 2C24 2 22.5 8.5 22.5 12C22.5 15.5 24 18 24 18C24 18 25.5 15.5 25.5 12C25.5 8.5 24 2 24 2Z" fill="#00ED64"/>
  <path d="M24 18C24 18 21 20 21 24C21 28 24 30 24 30C24 30 27 28 27 24C27 20 24 18 24 18Z" fill="#00ED64"/>
  <path d="M24 30C24 30 21 32 21 36C21 40 24 42 24 42C24 42 27 40 27 36C27 32 24 30 24 30Z" fill="#00ED64"/>
  <path d="M24 42C24 42 22.5 44.5 22.5 46C22.5 47.5 24 48 24 48C24 48 25.5 47.5 25.5 46C25.5 44.5 24 42 24 42Z" fill="#00ED64"/>
</svg> 