<svg width="48" height="48" viewBox="0 0 48 48" fill="none" xmlns="http://www.w3.org/2000/svg">
  <path d="M24 4C12.954 4 4 12.954 4 24C4 35.046 12.954 44 24 44C35.046 44 44 35.046 44 24C44 12.954 35.046 4 24 4Z" fill="#61DAFB"/>
  <path d="M24 8C15.163 8 8 15.163 8 24C8 32.837 15.163 40 24 40C32.837 40 40 32.837 40 24C40 15.163 32.837 8 24 8Z" fill="#61DAFB"/>
  <path d="M24 12C17.373 12 12 17.373 12 24C12 30.627 17.373 36 24 36C30.627 36 36 30.627 36 24C36 17.373 30.627 12 24 12Z" fill="#61DAFB"/>
  <path d="M24 16C20.686 16 18 18.686 18 22C18 25.314 20.686 28 24 28C27.314 28 30 25.314 30 22C30 18.686 27.314 16 24 16Z" fill="#61DAFB"/>
  <path d="M24 20C22.895 20 22 20.895 22 22C22 23.105 22.895 24 24 24C25.105 24 26 23.105 26 22C26 20.895 25.105 20 24 20Z" fill="#61DAFB"/>
</svg> 